<?xml version="1.0" encoding="UTF-8"?>
<svg
  viewBox="0 0 99.91 115.37"
  fill="none"
  xmlns="http://www.w3.org/2000/svg"
>
  <path
    fill="#8E51FF"
    d="M85.45,64.62c-1.73,1.66-4.07,2.68-6.65,2.68-5.31,0-9.61-4.3-9.61-9.61s4.3-9.61,9.61-9.61
    c2.58,0,4.92,1.02,6.65,2.68l14.47-21.91-26.21,1.57c.57,2.32.29,4.86-1,7.1c-2.65,4.6-8.53,6.17-13.13,3.52
    c-4.6-2.66-6.17-8.53-3.52-13.13c1.29-2.24,3.35-3.75,5.65-4.42L49.96,0l-11.74,23.48c2.3.67,4.35,2.18,5.65,4.42
    c2.65,4.6,1.08,10.48-3.52,13.13c-4.6,2.65-10.48,1.08-13.13-3.52c-1.29-2.24-1.57-4.77-1-7.1L0,28.84l14.47,21.91
    c1.73-1.66,4.07-2.68,6.65-2.68c5.31,0,9.61,4.3,9.61,9.61s-4.3,9.61-9.61,9.61c-2.58,0-4.92-1.02-6.65-2.68L0,86.53l26.21-1.57
    c-.57-2.32-.29-4.86,1-7.1c2.65-4.6,8.53-6.17,13.13-3.52c4.6,2.66,6.17,8.53,3.52,13.13c-1.29,2.24-3.35,3.75-5.65,4.42
    l11.74,23.48l11.74-23.48c-2.3-.67-4.35-2.18-5.65-4.42c-2.65-4.6-1.08-10.48,3.52-13.13c4.6-2.65,10.48-1.08,13.13,3.52
    c1.29,2.24,1.57,4.77,1,7.1l26.21,1.57l-14.47-21.91ZM49.96,67.3c-5.31,0-9.61-4.3-9.61-9.61s4.3-9.61,9.61-9.61
    s9.61,4.3,9.61,9.61s-4.3,9.61-9.61,9.61Z"
  />
</svg>
